<svg width="959" height="1023" viewBox="0 0 959 1023" fill="none" xmlns="http://www.w3.org/2000/svg">
<path d="M633.052 692.58L719.5 692.58L719.5 815.229C719.5 886.247 660.945 945 589.927 945L467.08 945L467.08 692.58L553.528 692.58L553.528 858.552L589.927 858.552C613.666 858.552 633.052 838.77 633.052 815.229L633.052 692.58Z" fill="#1A407E"/>
<path d="M887.881 759.831C859.037 759.831 834.832 784.037 834.832 812.679C834.832 841.322 858.835 865.729 887.881 865.729C916.927 865.729 940.729 841.524 940.729 812.679C940.729 783.835 916.725 759.831 887.881 759.831ZM953.84 680.56C989.945 680.56 1020 710.413 1020 746.519L1020 945L755.56 945L755.56 746.519C755.56 710.413 785.413 680.56 821.519 680.56C857.625 680.56 887.679 710.413 887.679 746.519L887.881 746.519C887.881 710.413 917.734 680.56 953.84 680.56Z" fill="#1A407E"/>
<path d="M887.881 505.296C863.676 505.296 843.707 524.948 843.707 549.011C843.707 572.875 863.878 592.928 887.881 592.928C912.086 592.928 931.853 573.075 931.853 549.011C931.853 525.148 911.884 505.296 887.881 505.296ZM887.881 417.664C960.294 417.664 1020 477.021 1020 549.011C1020 621.002 960.294 680.56 887.881 680.56C815.266 680.56 755.56 620.601 755.56 549.011C755.56 477.021 815.468 417.664 887.881 417.664Z" fill="#1A407E"/>
<path d="M876.989 221.937L1020 79.5601L1020 203.488L957.269 266.054L1020 328.219L1020 451.947L876.989 309.77L762.62 423.672L762.62 299.743L796.709 265.853L762.62 231.964L762.62 108.035L876.989 221.937Z" fill="#1A407E"/>
<path d="M647.38 247.84L719.5 247.84L719.5 319.96L647.38 319.96L647.38 247.84Z" fill="#1A407E"/>
<path d="M575.26 175.72L647.38 175.72L647.38 247.84L575.26 247.84L575.26 175.72Z" fill="#1A407E"/>
<path d="M647.38 103.6L719.5 103.6L719.5 175.72L647.38 175.72L647.38 103.6Z" fill="#1A407E"/>
<path d="M466.406 425.794L553.084 425.794L553.084 549.583C553.084 573.542 572.523 593.309 596.325 593.309L719.5 593.309L719.5 680.56L466.406 680.56L466.406 425.794Z" fill="#1A407E"/>
<path d="M466.406 331.98L719.5 331.98L719.5 419.231L466.406 419.231L466.406 331.98ZM436.851 401.062C446.571 401.062 454.505 409.448 454.505 419.231C454.505 428.815 446.571 437.001 436.851 437.001C427.132 437.001 419 428.815 419 419.231C419 409.448 427.132 401.062 436.851 401.062Z" fill="#1A407E"/>
<path d="M608.052 692.58L694.5 692.58L694.5 815.229C694.5 886.247 635.945 945 564.927 945L442.08 945L442.08 692.58L528.528 692.58L528.528 858.552L564.927 858.552C588.666 858.552 608.052 838.77 608.052 815.229L608.052 692.58Z" fill="#3F89AD"/>
<path d="M862.881 759.831C834.037 759.831 809.832 784.037 809.832 812.679C809.832 841.322 833.835 865.729 862.881 865.729C891.927 865.729 915.729 841.524 915.729 812.679C915.729 783.835 891.725 759.831 862.881 759.831ZM928.84 680.56C964.945 680.56 995 710.413 995 746.519L995 945L730.56 945L730.56 746.519C730.56 710.413 760.413 680.56 796.519 680.56C832.625 680.56 862.679 710.413 862.679 746.519L862.881 746.519C862.881 710.413 892.734 680.56 928.84 680.56Z" fill="#3F89AD"/>
<path d="M862.881 505.296C838.676 505.296 818.707 524.948 818.707 549.011C818.707 572.875 838.878 592.928 862.881 592.928C887.086 592.928 906.853 573.075 906.853 549.011C906.853 525.148 886.884 505.296 862.881 505.296ZM862.881 417.664C935.294 417.664 995 477.021 995 549.011C995 621.002 935.294 680.56 862.881 680.56C790.266 680.56 730.56 620.601 730.56 549.011C730.56 477.021 790.468 417.664 862.881 417.664Z" fill="#3F89AD"/>
<path d="M851.989 221.937L995 79.5601L995 203.488L932.269 266.054L995 328.219L995 451.947L851.989 309.77L737.62 423.672L737.62 299.743L771.709 265.853L737.62 231.964L737.62 108.035L851.989 221.937Z" fill="#3F89AD"/>
<path d="M622.38 247.84L694.5 247.84L694.5 319.96L622.38 319.96L622.38 247.84Z" fill="#3F89AD"/>
<path d="M550.26 175.72L622.38 175.72L622.38 247.84L550.26 247.84L550.26 175.72Z" fill="#3F89AD"/>
<path d="M622.38 103.6L694.5 103.6L694.5 175.72L622.38 175.72L622.38 103.6Z" fill="#3F89AD"/>
<path d="M441.406 425.794L528.084 425.794L528.084 549.583C528.084 573.542 547.523 593.309 571.325 593.309L694.5 593.309L694.5 680.56L441.406 680.56L441.406 425.794Z" fill="#3F89AD"/>
<path d="M441.406 331.98L694.5 331.98L694.5 419.231L441.406 419.231L441.406 331.98ZM411.851 401.062C421.571 401.062 429.505 409.448 429.505 419.231C429.505 428.815 421.571 437.001 411.851 437.001C402.132 437.001 394 428.815 394 419.231C394 409.448 402.132 401.062 411.851 401.062Z" fill="#3F89AD"/>
<path d="M587.052 692.58L673.5 692.58L673.5 815.229C673.5 886.247 614.945 945 543.927 945L421.08 945L421.08 692.58L507.528 692.58L507.528 858.552L543.927 858.552C567.666 858.552 587.052 838.77 587.052 815.229L587.052 692.58Z" fill="#1A407E"/>
<path d="M841.881 759.831C813.037 759.831 788.832 784.037 788.832 812.679C788.832 841.322 812.835 865.729 841.881 865.729C870.927 865.729 894.729 841.524 894.729 812.679C894.729 783.835 870.725 759.831 841.881 759.831ZM907.84 680.56C943.945 680.56 974 710.413 974 746.519L974 945L709.56 945L709.56 746.519C709.56 710.413 739.413 680.56 775.519 680.56C811.625 680.56 841.679 710.413 841.679 746.519L841.881 746.519C841.881 710.413 871.734 680.56 907.84 680.56Z" fill="#1A407E"/>
<path d="M841.881 505.296C817.676 505.296 797.707 524.948 797.707 549.011C797.707 572.875 817.878 592.928 841.881 592.928C866.086 592.928 885.853 573.075 885.853 549.011C885.853 525.148 865.884 505.296 841.881 505.296ZM841.881 417.664C914.294 417.664 974 477.021 974 549.011C974 621.002 914.294 680.56 841.881 680.56C769.266 680.56 709.56 620.601 709.56 549.011C709.56 477.021 769.468 417.664 841.881 417.664Z" fill="#1A407E"/>
<path d="M830.989 221.937L974 79.5601L974 203.488L911.269 266.054L974 328.219L974 451.947L830.989 309.77L716.62 423.672L716.62 299.743L750.709 265.853L716.62 231.964L716.62 108.035L830.989 221.937Z" fill="#1A407E"/>
<path d="M601.38 247.84L673.5 247.84L673.5 319.96L601.38 319.96L601.38 247.84Z" fill="#1A407E"/>
<path d="M529.26 175.72L601.38 175.72L601.38 247.84L529.26 247.84L529.26 175.72Z" fill="#1A407E"/>
<path d="M601.38 103.6L673.5 103.6L673.5 175.72L601.38 175.72L601.38 103.6Z" fill="#1A407E"/>
<path d="M420.406 425.794L507.084 425.794L507.084 549.583C507.084 573.542 526.523 593.309 550.325 593.309L673.5 593.309L673.5 680.56L420.406 680.56L420.406 425.794Z" fill="#1A407E"/>
<path d="M420.406 331.98L673.5 331.98L673.5 419.231L420.406 419.231L420.406 331.98ZM390.851 401.062C400.571 401.062 408.505 409.448 408.505 419.231C408.505 428.815 400.571 437.001 390.851 437.001C381.132 437.001 373 428.815 373 419.231C373 409.448 381.132 401.062 390.851 401.062Z" fill="#1A407E"/>
<path d="M562.052 692.58L648.5 692.58L648.5 815.229C648.5 886.247 589.945 945 518.927 945L396.08 945L396.08 692.58L482.528 692.58L482.528 858.552L518.927 858.552C542.666 858.552 562.052 838.77 562.052 815.229L562.052 692.58Z" fill="#0C2485"/>
<path d="M816.881 759.831C788.037 759.831 763.832 784.037 763.832 812.679C763.832 841.322 787.835 865.729 816.881 865.729C845.927 865.729 869.729 841.524 869.729 812.679C869.729 783.835 845.725 759.831 816.881 759.831ZM882.84 680.56C918.945 680.56 949 710.413 949 746.519L949 945L684.56 945L684.56 746.519C684.56 710.413 714.413 680.56 750.519 680.56C786.625 680.56 816.679 710.413 816.679 746.519L816.881 746.519C816.881 710.413 846.734 680.56 882.84 680.56Z" fill="#0C2485"/>
<path d="M816.881 505.296C792.676 505.296 772.707 524.948 772.707 549.011C772.707 572.875 792.878 592.928 816.881 592.928C841.086 592.928 860.853 573.075 860.853 549.011C860.853 525.148 840.884 505.296 816.881 505.296ZM816.881 417.664C889.294 417.664 949 477.021 949 549.011C949 621.002 889.294 680.56 816.881 680.56C744.266 680.56 684.56 620.601 684.56 549.011C684.56 477.021 744.468 417.664 816.881 417.664Z" fill="#0C2485"/>
<path d="M805.989 221.937L949 79.5601L949 203.488L886.269 266.054L949 328.219L949 451.947L805.989 309.77L691.62 423.672L691.62 299.743L725.709 265.853L691.62 231.964L691.62 108.035L805.989 221.937Z" fill="#0C2485"/>
<path d="M576.38 247.84L648.5 247.84L648.5 319.96L576.38 319.96L576.38 247.84Z" fill="#0C2485"/>
<path d="M504.26 175.72L576.38 175.72L576.38 247.84L504.26 247.84L504.26 175.72Z" fill="#0C2485"/>
<path d="M576.38 103.6L648.5 103.6L648.5 175.72L576.38 175.72L576.38 103.6Z" fill="#0C2485"/>
<path d="M395.406 425.794L482.084 425.794L482.084 549.583C482.084 573.542 501.523 593.309 525.325 593.309L648.5 593.309L648.5 680.56L395.406 680.56L395.406 425.794Z" fill="#0C2485"/>
<path d="M395.406 331.98L648.5 331.98L648.5 419.231L395.406 419.231L395.406 331.98ZM365.851 401.062C375.571 401.062 383.505 409.448 383.505 419.231C383.505 428.815 375.571 437.001 365.851 437.001C356.132 437.001 348 428.815 348 419.231C348 409.448 356.132 401.062 365.851 401.062Z" fill="#0C2485"/>
<path d="M543.052 692.58L629.5 692.58L629.5 815.229C629.5 886.247 570.945 945 499.927 945L377.08 945L377.08 692.58L463.528 692.58L463.528 858.552L499.927 858.552C523.666 858.552 543.052 838.77 543.052 815.229L543.052 692.58Z" fill="#110684"/>
<path d="M797.881 759.831C769.037 759.831 744.832 784.037 744.832 812.679C744.832 841.322 768.835 865.729 797.881 865.729C826.927 865.729 850.729 841.524 850.729 812.679C850.729 783.835 826.725 759.831 797.881 759.831ZM863.84 680.56C899.945 680.56 930 710.413 930 746.519L930 945L665.56 945L665.56 746.519C665.56 710.413 695.413 680.56 731.519 680.56C767.625 680.56 797.679 710.413 797.679 746.519L797.881 746.519C797.881 710.413 827.734 680.56 863.84 680.56Z" fill="#110684"/>
<path d="M797.881 505.296C773.676 505.296 753.707 524.948 753.707 549.011C753.707 572.875 773.878 592.928 797.881 592.928C822.086 592.928 841.853 573.075 841.853 549.011C841.853 525.148 821.884 505.296 797.881 505.296ZM797.881 417.664C870.294 417.664 930 477.021 930 549.011C930 621.002 870.294 680.56 797.881 680.56C725.266 680.56 665.56 620.601 665.56 549.011C665.56 477.021 725.468 417.664 797.881 417.664Z" fill="#110684"/>
<path d="M786.989 221.937L930 79.5601L930 203.488L867.269 266.054L930 328.219L930 451.947L786.989 309.77L672.62 423.672L672.62 299.743L706.709 265.853L672.62 231.964L672.62 108.035L786.989 221.937Z" fill="#110684"/>
<path d="M557.38 247.84L629.5 247.84L629.5 319.96L557.38 319.96L557.38 247.84Z" fill="#110684"/>
<path d="M485.26 175.72L557.38 175.72L557.38 247.84L485.26 247.84L485.26 175.72Z" fill="#110684"/>
<path d="M557.38 103.6L629.5 103.6L629.5 175.72L557.38 175.72L557.38 103.6Z" fill="#110684"/>
<path d="M376.406 425.794L463.084 425.794L463.084 549.583C463.084 573.542 482.523 593.309 506.325 593.309L629.5 593.309L629.5 680.56L376.406 680.56L376.406 425.794Z" fill="#110684"/>
<path d="M376.406 331.98L629.5 331.98L629.5 419.231L376.406 419.231L376.406 331.98ZM346.851 401.062C356.571 401.062 364.505 409.448 364.505 419.231C364.505 428.815 356.571 437.001 346.851 437.001C337.132 437.001 329 428.815 329 419.231C329 409.448 337.132 401.062 346.851 401.062Z" fill="#110684"/>
<path d="M518.052 692.58L604.5 692.58L604.5 815.229C604.5 886.247 545.945 945 474.927 945L352.08 945L352.08 692.58L438.528 692.58L438.528 858.552L474.927 858.552C498.666 858.552 518.052 838.77 518.052 815.229L518.052 692.58Z" fill="#5910BB"/>
<path d="M772.881 759.831C744.037 759.831 719.832 784.037 719.832 812.679C719.832 841.322 743.835 865.729 772.881 865.729C801.927 865.729 825.729 841.524 825.729 812.679C825.729 783.835 801.725 759.831 772.881 759.831ZM838.84 680.56C874.945 680.56 905 710.413 905 746.519L905 945L640.56 945L640.56 746.519C640.56 710.413 670.413 680.56 706.519 680.56C742.625 680.56 772.679 710.413 772.679 746.519L772.881 746.519C772.881 710.413 802.734 680.56 838.84 680.56Z" fill="#5910BB"/>
<path d="M772.881 505.296C748.676 505.296 728.707 524.948 728.707 549.011C728.707 572.875 748.878 592.928 772.881 592.928C797.086 592.928 816.853 573.075 816.853 549.011C816.853 525.148 796.884 505.296 772.881 505.296ZM772.881 417.664C845.294 417.664 905 477.021 905 549.011C905 621.002 845.294 680.56 772.881 680.56C700.266 680.56 640.56 620.601 640.56 549.011C640.56 477.021 700.468 417.664 772.881 417.664Z" fill="#5910BB"/>
<path d="M761.989 221.937L905 79.5601L905 203.488L842.269 266.054L905 328.219L905 451.947L761.989 309.77L647.62 423.672L647.62 299.743L681.709 265.853L647.62 231.964L647.62 108.035L761.989 221.937Z" fill="#5910BB"/>
<path d="M532.38 247.84L604.5 247.84L604.5 319.96L532.38 319.96L532.38 247.84Z" fill="#5910BB"/>
<path d="M460.26 175.72L532.38 175.72L532.38 247.84L460.26 247.84L460.26 175.72Z" fill="#5910BB"/>
<path d="M532.38 103.6L604.5 103.6L604.5 175.72L532.38 175.72L532.38 103.6Z" fill="#5910BB"/>
<path d="M351.406 425.794L438.084 425.794L438.084 549.583C438.084 573.542 457.523 593.309 481.325 593.309L604.5 593.309L604.5 680.56L351.406 680.56L351.406 425.794Z" fill="#5910BB"/>
<path d="M351.406 331.98L604.5 331.98L604.5 419.231L351.406 419.231L351.406 331.98ZM321.851 401.062C331.571 401.062 339.505 409.448 339.505 419.231C339.505 428.815 331.571 437.001 321.851 437.001C312.132 437.001 304 428.815 304 419.231C304 409.448 312.132 401.062 321.851 401.062Z" fill="#5910BB"/>
<path d="M492.052 692.58L578.5 692.58L578.5 815.229C578.5 886.247 519.945 945 448.927 945L326.08 945L326.08 692.58L412.528 692.58L412.528 858.552L448.927 858.552C472.666 858.552 492.052 838.77 492.052 815.229L492.052 692.58Z" fill="#941DC3"/>
<path d="M746.881 759.831C718.037 759.831 693.832 784.037 693.832 812.679C693.832 841.322 717.835 865.729 746.881 865.729C775.927 865.729 799.729 841.524 799.729 812.679C799.729 783.835 775.725 759.831 746.881 759.831ZM812.84 680.56C848.945 680.56 879 710.413 879 746.519L879 945L614.56 945L614.56 746.519C614.56 710.413 644.413 680.56 680.519 680.56C716.625 680.56 746.679 710.413 746.679 746.519L746.881 746.519C746.881 710.413 776.734 680.56 812.84 680.56Z" fill="#941DC3"/>
<path d="M746.881 505.296C722.676 505.296 702.707 524.948 702.707 549.011C702.707 572.875 722.878 592.928 746.881 592.928C771.086 592.928 790.853 573.075 790.853 549.011C790.853 525.148 770.884 505.296 746.881 505.296ZM746.881 417.664C819.294 417.664 879 477.021 879 549.011C879 621.002 819.294 680.56 746.881 680.56C674.266 680.56 614.56 620.601 614.56 549.011C614.56 477.021 674.468 417.664 746.881 417.664Z" fill="#941DC3"/>
<path d="M735.989 221.937L879 79.5601L879 203.488L816.269 266.054L879 328.219L879 451.947L735.989 309.77L621.62 423.672L621.62 299.743L655.709 265.853L621.62 231.964L621.62 108.035L735.989 221.937Z" fill="#941DC3"/>
<path d="M506.38 247.84L578.5 247.84L578.5 319.96L506.38 319.96L506.38 247.84Z" fill="#941DC3"/>
<path d="M434.26 175.72L506.38 175.72L506.38 247.84L434.26 247.84L434.26 175.72Z" fill="#941DC3"/>
<path d="M506.38 103.6L578.5 103.6L578.5 175.72L506.38 175.72L506.38 103.6Z" fill="#941DC3"/>
<path d="M325.406 425.794L412.084 425.794L412.084 549.583C412.084 573.542 431.523 593.309 455.325 593.309L578.5 593.309L578.5 680.56L325.406 680.56L325.406 425.794Z" fill="#941DC3"/>
<path d="M325.406 331.98L578.5 331.98L578.5 419.231L325.406 419.231L325.406 331.98ZM295.851 401.062C305.571 401.062 313.505 409.448 313.505 419.231C313.505 428.815 305.571 437.001 295.851 437.001C286.132 437.001 278 428.815 278 419.231C278 409.448 286.132 401.062 295.851 401.062Z" fill="#941DC3"/>
<path d="M467.052 692.58L553.5 692.58L553.5 815.229C553.5 886.247 494.945 945 423.927 945L301.08 945L301.08 692.58L387.528 692.58L387.528 858.552L423.927 858.552C447.666 858.552 467.052 838.77 467.052 815.229L467.052 692.58Z" fill="#B7278F"/>
<path d="M721.881 759.831C693.037 759.831 668.832 784.037 668.832 812.679C668.832 841.322 692.835 865.729 721.881 865.729C750.927 865.729 774.729 841.524 774.729 812.679C774.729 783.835 750.725 759.831 721.881 759.831ZM787.84 680.56C823.945 680.56 854 710.413 854 746.519L854 945L589.56 945L589.56 746.519C589.56 710.413 619.413 680.56 655.519 680.56C691.625 680.56 721.679 710.413 721.679 746.519L721.881 746.519C721.881 710.413 751.734 680.56 787.84 680.56Z" fill="#B7278F"/>
<path d="M721.881 505.296C697.676 505.296 677.707 524.948 677.707 549.011C677.707 572.875 697.878 592.928 721.881 592.928C746.086 592.928 765.853 573.075 765.853 549.011C765.853 525.148 745.884 505.296 721.881 505.296ZM721.881 417.664C794.294 417.664 854 477.021 854 549.011C854 621.002 794.294 680.56 721.881 680.56C649.266 680.56 589.56 620.601 589.56 549.011C589.56 477.021 649.468 417.664 721.881 417.664Z" fill="#B7278F"/>
<path d="M710.989 221.937L854 79.5601L854 203.488L791.269 266.054L854 328.219L854 451.947L710.989 309.77L596.62 423.672L596.62 299.743L630.709 265.853L596.62 231.964L596.62 108.035L710.989 221.937Z" fill="#B7278F"/>
<path d="M481.38 247.84L553.5 247.84L553.5 319.96L481.38 319.96L481.38 247.84Z" fill="#B7278F"/>
<path d="M409.26 175.72L481.38 175.72L481.38 247.84L409.26 247.84L409.26 175.72Z" fill="#B7278F"/>
<path d="M481.38 103.6L553.5 103.6L553.5 175.72L481.38 175.72L481.38 103.6Z" fill="#B7278F"/>
<path d="M300.406 425.794L387.084 425.794L387.084 549.583C387.084 573.542 406.523 593.309 430.325 593.309L553.5 593.309L553.5 680.56L300.406 680.56L300.406 425.794Z" fill="#B7278F"/>
<path d="M300.406 331.98L553.5 331.98L553.5 419.231L300.406 419.231L300.406 331.98ZM270.851 401.062C280.571 401.062 288.505 409.448 288.505 419.231C288.505 428.815 280.571 437.001 270.851 437.001C261.132 437.001 253 428.815 253 419.231C253 409.448 261.132 401.062 270.851 401.062Z" fill="#B7278F"/>
<path d="M435.052 692.58L521.5 692.58L521.5 815.229C521.5 886.247 462.945 945 391.927 945L269.08 945L269.08 692.58L355.528 692.58L355.528 858.552L391.927 858.552C415.666 858.552 435.052 838.77 435.052 815.229L435.052 692.58Z" fill="#D02DA9"/>
<path d="M689.881 759.831C661.037 759.831 636.832 784.037 636.832 812.679C636.832 841.322 660.835 865.729 689.881 865.729C718.927 865.729 742.729 841.524 742.729 812.679C742.729 783.835 718.725 759.831 689.881 759.831ZM755.84 680.56C791.945 680.56 822 710.413 822 746.519L822 945L557.56 945L557.56 746.519C557.56 710.413 587.413 680.56 623.519 680.56C659.625 680.56 689.679 710.413 689.679 746.519L689.881 746.519C689.881 710.413 719.734 680.56 755.84 680.56Z" fill="#D02DA9"/>
<path d="M689.881 505.296C665.676 505.296 645.707 524.948 645.707 549.011C645.707 572.875 665.878 592.928 689.881 592.928C714.086 592.928 733.853 573.075 733.853 549.011C733.853 525.148 713.884 505.296 689.881 505.296ZM689.881 417.664C762.294 417.664 822 477.021 822 549.011C822 621.002 762.294 680.56 689.881 680.56C617.266 680.56 557.56 620.601 557.56 549.011C557.56 477.021 617.468 417.664 689.881 417.664Z" fill="#D02DA9"/>
<path d="M678.989 221.937L822 79.5601L822 203.488L759.269 266.054L822 328.219L822 451.947L678.989 309.77L564.62 423.672L564.62 299.743L598.709 265.853L564.62 231.964L564.62 108.035L678.989 221.937Z" fill="#D02DA9"/>
<path d="M449.38 247.84L521.5 247.84L521.5 319.96L449.38 319.96L449.38 247.84Z" fill="#D02DA9"/>
<path d="M377.26 175.72L449.38 175.72L449.38 247.84L377.26 247.84L377.26 175.72Z" fill="#D02DA9"/>
<path d="M449.38 103.6L521.5 103.6L521.5 175.72L449.38 175.72L449.38 103.6Z" fill="#D02DA9"/>
<path d="M268.406 425.794L355.084 425.794L355.084 549.583C355.084 573.542 374.523 593.309 398.325 593.309L521.5 593.309L521.5 680.56L268.406 680.56L268.406 425.794Z" fill="#D02DA9"/>
<path d="M268.406 331.98L521.5 331.98L521.5 419.231L268.406 419.231L268.406 331.98ZM238.851 401.062C248.571 401.062 256.505 409.448 256.505 419.231C256.505 428.815 248.571 437.001 238.851 437.001C229.132 437.001 221 428.815 221 419.231C221 409.448 229.132 401.062 238.851 401.062Z" fill="#D02DA9"/>
<path d="M410.052 692.58L496.5 692.58L496.5 815.229C496.5 886.247 437.945 945 366.927 945L244.08 945L244.08 692.58L330.528 692.58L330.528 858.552L366.927 858.552C390.666 858.552 410.052 838.77 410.052 815.229L410.052 692.58Z" fill="#D840BF"/>
<path d="M664.881 759.831C636.037 759.831 611.832 784.037 611.832 812.679C611.832 841.322 635.835 865.729 664.881 865.729C693.927 865.729 717.729 841.524 717.729 812.679C717.729 783.835 693.725 759.831 664.881 759.831ZM730.84 680.56C766.945 680.56 797 710.413 797 746.519L797 945L532.56 945L532.56 746.519C532.56 710.413 562.413 680.56 598.519 680.56C634.625 680.56 664.679 710.413 664.679 746.519L664.881 746.519C664.881 710.413 694.734 680.56 730.84 680.56Z" fill="#D840BF"/>
<path d="M664.881 505.296C640.676 505.296 620.707 524.948 620.707 549.011C620.707 572.875 640.878 592.928 664.881 592.928C689.086 592.928 708.853 573.075 708.853 549.011C708.853 525.148 688.884 505.296 664.881 505.296ZM664.881 417.664C737.294 417.664 797 477.021 797 549.011C797 621.002 737.294 680.56 664.881 680.56C592.266 680.56 532.56 620.601 532.56 549.011C532.56 477.021 592.468 417.664 664.881 417.664Z" fill="#D840BF"/>
<path d="M653.989 221.937L797 79.5601L797 203.488L734.269 266.054L797 328.219L797 451.947L653.989 309.77L539.62 423.672L539.62 299.743L573.709 265.853L539.62 231.964L539.62 108.035L653.989 221.937Z" fill="#D840BF"/>
<path d="M424.38 247.84L496.5 247.84L496.5 319.96L424.38 319.96L424.38 247.84Z" fill="#D840BF"/>
<path d="M352.26 175.72L424.38 175.72L424.38 247.84L352.26 247.84L352.26 175.72Z" fill="#D840BF"/>
<path d="M424.38 103.6L496.5 103.6L496.5 175.72L424.38 175.72L424.38 103.6Z" fill="#D840BF"/>
<path d="M243.406 425.794L330.084 425.794L330.084 549.583C330.084 573.542 349.523 593.309 373.325 593.309L496.5 593.309L496.5 680.56L243.406 680.56L243.406 425.794Z" fill="#D840BF"/>
<path d="M243.406 331.98L496.5 331.98L496.5 419.231L243.406 419.231L243.406 331.98ZM213.851 401.062C223.571 401.062 231.505 409.448 231.505 419.231C231.505 428.815 223.571 437.001 213.851 437.001C204.132 437.001 196 428.815 196 419.231C196 409.448 204.132 401.062 213.851 401.062Z" fill="#D840BF"/>
<path d="M385.052 692.58L471.5 692.58L471.5 815.229C471.5 886.247 412.945 945 341.927 945L219.08 945L219.08 692.58L305.528 692.58L305.528 858.552L341.927 858.552C365.666 858.552 385.052 838.77 385.052 815.229L385.052 692.58Z" fill="#E15DDE"/>
<path d="M639.881 759.831C611.037 759.831 586.832 784.037 586.832 812.679C586.832 841.322 610.835 865.729 639.881 865.729C668.927 865.729 692.729 841.524 692.729 812.679C692.729 783.835 668.725 759.831 639.881 759.831ZM705.84 680.56C741.945 680.56 772 710.413 772 746.519L772 945L507.56 945L507.56 746.519C507.56 710.413 537.413 680.56 573.519 680.56C609.625 680.56 639.679 710.413 639.679 746.519L639.881 746.519C639.881 710.413 669.734 680.56 705.84 680.56Z" fill="#E15DDE"/>
<path d="M639.881 505.296C615.676 505.296 595.707 524.948 595.707 549.011C595.707 572.875 615.878 592.928 639.881 592.928C664.086 592.928 683.853 573.075 683.853 549.011C683.853 525.148 663.884 505.296 639.881 505.296ZM639.881 417.664C712.294 417.664 772 477.021 772 549.011C772 621.002 712.294 680.56 639.881 680.56C567.266 680.56 507.56 620.601 507.56 549.011C507.56 477.021 567.468 417.664 639.881 417.664Z" fill="#E15DDE"/>
<path d="M628.989 221.937L772 79.5601L772 203.488L709.269 266.054L772 328.219L772 451.947L628.989 309.77L514.62 423.672L514.62 299.743L548.709 265.853L514.62 231.964L514.62 108.035L628.989 221.937Z" fill="#E15DDE"/>
<path d="M399.38 247.84L471.5 247.84L471.5 319.96L399.38 319.96L399.38 247.84Z" fill="#E15DDE"/>
<path d="M327.26 175.72L399.38 175.72L399.38 247.84L327.26 247.84L327.26 175.72Z" fill="#E15DDE"/>
<path d="M399.38 103.6L471.5 103.6L471.5 175.72L399.38 175.72L399.38 103.6Z" fill="#E15DDE"/>
<path d="M218.406 425.794L305.084 425.794L305.084 549.583C305.084 573.542 324.523 593.309 348.325 593.309L471.5 593.309L471.5 680.56L218.406 680.56L218.406 425.794Z" fill="#E15DDE"/>
<path d="M218.406 331.98L471.5 331.98L471.5 419.231L218.406 419.231L218.406 331.98ZM188.851 401.062C198.571 401.062 206.505 409.448 206.505 419.231C206.505 428.815 198.571 437.001 188.851 437.001C179.132 437.001 171 428.815 171 419.231C171 409.448 179.132 401.062 188.851 401.062Z" fill="#E15DDE"/>
<path d="M360.052 692.58L446.5 692.58L446.5 815.229C446.5 886.247 387.945 945 316.927 945L194.08 945L194.08 692.58L280.528 692.58L280.528 858.552L316.927 858.552C340.666 858.552 360.052 838.77 360.052 815.229L360.052 692.58Z" fill="#CD3C20"/>
<path d="M614.881 759.831C586.037 759.831 561.832 784.037 561.832 812.679C561.832 841.322 585.835 865.729 614.881 865.729C643.927 865.729 667.729 841.524 667.729 812.679C667.729 783.835 643.725 759.831 614.881 759.831ZM680.84 680.56C716.945 680.56 747 710.413 747 746.519L747 945L482.56 945L482.56 746.519C482.56 710.413 512.413 680.56 548.519 680.56C584.625 680.56 614.679 710.413 614.679 746.519L614.881 746.519C614.881 710.413 644.734 680.56 680.84 680.56Z" fill="#CD3C20"/>
<path d="M614.881 505.296C590.676 505.296 570.707 524.948 570.707 549.011C570.707 572.875 590.878 592.928 614.881 592.928C639.086 592.928 658.853 573.075 658.853 549.011C658.853 525.148 638.884 505.296 614.881 505.296ZM614.881 417.664C687.294 417.664 747 477.021 747 549.011C747 621.002 687.294 680.56 614.881 680.56C542.266 680.56 482.56 620.601 482.56 549.011C482.56 477.021 542.468 417.664 614.881 417.664Z" fill="#CD3C20"/>
<path d="M603.989 221.937L747 79.5601L747 203.488L684.269 266.054L747 328.219L747 451.947L603.989 309.77L489.62 423.672L489.62 299.743L523.709 265.853L489.62 231.964L489.62 108.035L603.989 221.937Z" fill="#CD3C20"/>
<path d="M374.38 247.84L446.5 247.84L446.5 319.96L374.38 319.96L374.38 247.84Z" fill="#CD3C20"/>
<path d="M302.26 175.72L374.38 175.72L374.38 247.84L302.26 247.84L302.26 175.72Z" fill="#CD3C20"/>
<path d="M374.38 103.6L446.5 103.6L446.5 175.72L374.38 175.72L374.38 103.6Z" fill="#CD3C20"/>
<path d="M193.406 425.794L280.084 425.794L280.084 549.583C280.084 573.542 299.523 593.309 323.325 593.309L446.5 593.309L446.5 680.56L193.406 680.56L193.406 425.794Z" fill="#CD3C20"/>
<path d="M193.406 331.98L446.5 331.98L446.5 419.231L193.406 419.231L193.406 331.98ZM163.851 401.062C173.571 401.062 181.505 409.448 181.505 419.231C181.505 428.815 173.571 437.001 163.851 437.001C154.132 437.001 146 428.815 146 419.231C146 409.448 154.132 401.062 163.851 401.062Z" fill="#CD3C20"/>
<path d="M342.052 692.58L428.5 692.58L428.5 815.229C428.5 886.247 369.945 945 298.927 945L176.08 945L176.08 692.58L262.528 692.58L262.528 858.552L298.927 858.552C322.666 858.552 342.052 838.77 342.052 815.229L342.052 692.58Z" fill="#C96126"/>
<path d="M596.881 759.831C568.037 759.831 543.832 784.037 543.832 812.679C543.832 841.322 567.835 865.729 596.881 865.729C625.927 865.729 649.729 841.524 649.729 812.679C649.729 783.835 625.725 759.831 596.881 759.831ZM662.84 680.56C698.945 680.56 729 710.413 729 746.519L729 945L464.56 945L464.56 746.519C464.56 710.413 494.413 680.56 530.519 680.56C566.625 680.56 596.679 710.413 596.679 746.519L596.881 746.519C596.881 710.413 626.734 680.56 662.84 680.56Z" fill="#C96126"/>
<path d="M596.881 505.296C572.676 505.296 552.707 524.948 552.707 549.011C552.707 572.875 572.878 592.928 596.881 592.928C621.086 592.928 640.853 573.075 640.853 549.011C640.853 525.148 620.884 505.296 596.881 505.296ZM596.881 417.664C669.294 417.664 729 477.021 729 549.011C729 621.002 669.294 680.56 596.881 680.56C524.266 680.56 464.56 620.601 464.56 549.011C464.56 477.021 524.468 417.664 596.881 417.664Z" fill="#C96126"/>
<path d="M585.989 221.937L729 79.5601L729 203.488L666.269 266.054L729 328.219L729 451.947L585.989 309.77L471.62 423.672L471.62 299.743L505.709 265.853L471.62 231.964L471.62 108.035L585.989 221.937Z" fill="#C96126"/>
<path d="M356.38 247.84L428.5 247.84L428.5 319.96L356.38 319.96L356.38 247.84Z" fill="#C96126"/>
<path d="M284.26 175.72L356.38 175.72L356.38 247.84L284.26 247.84L284.26 175.72Z" fill="#C96126"/>
<path d="M356.38 103.6L428.5 103.6L428.5 175.72L356.38 175.72L356.38 103.6Z" fill="#C96126"/>
<path d="M175.406 425.794L262.084 425.794L262.084 549.583C262.084 573.542 281.523 593.309 305.325 593.309L428.5 593.309L428.5 680.56L175.406 680.56L175.406 425.794Z" fill="#C96126"/>
<path d="M175.406 331.98L428.5 331.98L428.5 419.231L175.406 419.231L175.406 331.98ZM145.851 401.062C155.571 401.062 163.505 409.448 163.505 419.231C163.505 428.815 155.571 437.001 145.851 437.001C136.132 437.001 128 428.815 128 419.231C128 409.448 136.132 401.062 145.851 401.062Z" fill="#C96126"/>
<path d="M317.052 692.58L403.5 692.58L403.5 815.229C403.5 886.247 344.945 945 273.927 945L151.08 945L151.08 692.58L237.528 692.58L237.528 858.552L273.927 858.552C297.666 858.552 317.052 838.77 317.052 815.229L317.052 692.58Z" fill="#D7862F"/>
<path d="M571.881 759.831C543.037 759.831 518.832 784.037 518.832 812.679C518.832 841.322 542.835 865.729 571.881 865.729C600.927 865.729 624.729 841.524 624.729 812.679C624.729 783.835 600.725 759.831 571.881 759.831ZM637.84 680.56C673.945 680.56 704 710.413 704 746.519L704 945L439.56 945L439.56 746.519C439.56 710.413 469.413 680.56 505.519 680.56C541.625 680.56 571.679 710.413 571.679 746.519L571.881 746.519C571.881 710.413 601.734 680.56 637.84 680.56Z" fill="#D7862F"/>
<path d="M571.881 505.296C547.676 505.296 527.707 524.948 527.707 549.011C527.707 572.875 547.878 592.928 571.881 592.928C596.086 592.928 615.853 573.075 615.853 549.011C615.853 525.148 595.884 505.296 571.881 505.296ZM571.881 417.664C644.294 417.664 704 477.021 704 549.011C704 621.002 644.294 680.56 571.881 680.56C499.266 680.56 439.56 620.601 439.56 549.011C439.56 477.021 499.468 417.664 571.881 417.664Z" fill="#D7862F"/>
<path d="M560.989 221.937L704 79.5601L704 203.488L641.269 266.054L704 328.219L704 451.947L560.989 309.77L446.62 423.672L446.62 299.743L480.709 265.853L446.62 231.964L446.62 108.035L560.989 221.937Z" fill="#D7862F"/>
<path d="M331.38 247.84L403.5 247.84L403.5 319.96L331.38 319.96L331.38 247.84Z" fill="#D7862F"/>
<path d="M259.26 175.72L331.38 175.72L331.38 247.84L259.26 247.84L259.26 175.72Z" fill="#D7862F"/>
<path d="M331.38 103.6L403.5 103.6L403.5 175.72L331.38 175.72L331.38 103.6Z" fill="#D7862F"/>
<path d="M150.406 425.794L237.084 425.794L237.084 549.583C237.084 573.542 256.523 593.309 280.325 593.309L403.5 593.309L403.5 680.56L150.406 680.56L150.406 425.794Z" fill="#D7862F"/>
<path d="M150.406 331.98L403.5 331.98L403.5 419.231L150.406 419.231L150.406 331.98ZM120.851 401.062C130.571 401.062 138.505 409.448 138.505 419.231C138.505 428.815 130.571 437.001 120.851 437.001C111.132 437.001 103 428.815 103 419.231C103 409.448 111.132 401.062 120.851 401.062Z" fill="#D7862F"/>
<path d="M287.052 692.58L373.5 692.58L373.5 815.229C373.5 886.247 314.945 945 243.927 945L121.08 945L121.08 692.58L207.528 692.58L207.528 858.552L243.927 858.552C267.666 858.552 287.052 838.77 287.052 815.229L287.052 692.58Z" fill="#D89A36"/>
<path d="M541.881 759.831C513.037 759.831 488.832 784.037 488.832 812.679C488.832 841.322 512.835 865.729 541.881 865.729C570.927 865.729 594.729 841.524 594.729 812.679C594.729 783.835 570.725 759.831 541.881 759.831ZM607.84 680.56C643.945 680.56 674 710.413 674 746.519L674 945L409.56 945L409.56 746.519C409.56 710.413 439.413 680.56 475.519 680.56C511.625 680.56 541.679 710.413 541.679 746.519L541.881 746.519C541.881 710.413 571.734 680.56 607.84 680.56Z" fill="#D89A36"/>
<path d="M541.881 505.296C517.676 505.296 497.707 524.948 497.707 549.011C497.707 572.875 517.878 592.928 541.881 592.928C566.086 592.928 585.853 573.075 585.853 549.011C585.853 525.148 565.884 505.296 541.881 505.296ZM541.881 417.664C614.294 417.664 674 477.021 674 549.011C674 621.002 614.294 680.56 541.881 680.56C469.266 680.56 409.56 620.601 409.56 549.011C409.56 477.021 469.468 417.664 541.881 417.664Z" fill="#D89A36"/>
<path d="M530.989 221.937L674 79.5601L674 203.488L611.269 266.054L674 328.219L674 451.947L530.989 309.77L416.62 423.672L416.62 299.743L450.709 265.853L416.62 231.964L416.62 108.035L530.989 221.937Z" fill="#D89A36"/>
<path d="M301.38 247.84L373.5 247.84L373.5 319.96L301.38 319.96L301.38 247.84Z" fill="#D89A36"/>
<path d="M229.26 175.72L301.38 175.72L301.38 247.84L229.26 247.84L229.26 175.72Z" fill="#D89A36"/>
<path d="M301.38 103.6L373.5 103.6L373.5 175.72L301.38 175.72L301.38 103.6Z" fill="#D89A36"/>
<path d="M120.406 425.794L207.084 425.794L207.084 549.583C207.084 573.542 226.523 593.309 250.325 593.309L373.5 593.309L373.5 680.56L120.406 680.56L120.406 425.794Z" fill="#D89A36"/>
<path d="M120.406 331.98L373.5 331.98L373.5 419.231L120.406 419.231L120.406 331.98ZM90.8515 401.062C100.571 401.062 108.505 409.448 108.505 419.231C108.505 428.815 100.571 437.001 90.8515 437.001C81.1323 437.001 73 428.815 73 419.231C73 409.448 81.1323 401.062 90.8515 401.062Z" fill="#D89A36"/>
<path d="M262.052 692.58L348.5 692.58L348.5 815.229C348.5 886.247 289.945 945 218.927 945L96.08 945L96.08 692.58L182.528 692.58L182.528 858.552L218.927 858.552C242.666 858.552 262.052 838.77 262.052 815.229L262.052 692.58Z" fill="#DCBA43"/>
<path d="M516.881 759.831C488.037 759.831 463.832 784.037 463.832 812.679C463.832 841.322 487.835 865.729 516.881 865.729C545.927 865.729 569.729 841.524 569.729 812.679C569.729 783.835 545.725 759.831 516.881 759.831ZM582.84 680.56C618.945 680.56 649 710.413 649 746.519L649 945L384.56 945L384.56 746.519C384.56 710.413 414.413 680.56 450.519 680.56C486.625 680.56 516.679 710.413 516.679 746.519L516.881 746.519C516.881 710.413 546.734 680.56 582.84 680.56Z" fill="#DCBA43"/>
<path d="M516.881 505.296C492.676 505.296 472.707 524.948 472.707 549.011C472.707 572.875 492.878 592.928 516.881 592.928C541.086 592.928 560.853 573.075 560.853 549.011C560.853 525.148 540.884 505.296 516.881 505.296ZM516.881 417.664C589.294 417.664 649 477.021 649 549.011C649 621.002 589.294 680.56 516.881 680.56C444.266 680.56 384.56 620.601 384.56 549.011C384.56 477.021 444.468 417.664 516.881 417.664Z" fill="#DCBA43"/>
<path d="M505.989 221.937L649 79.5601L649 203.488L586.269 266.054L649 328.219L649 451.947L505.989 309.77L391.62 423.672L391.62 299.743L425.709 265.853L391.62 231.964L391.62 108.035L505.989 221.937Z" fill="#DCBA43"/>
<path d="M276.38 247.84L348.5 247.84L348.5 319.96L276.38 319.96L276.38 247.84Z" fill="#DCBA43"/>
<path d="M204.26 175.72L276.38 175.72L276.38 247.84L204.26 247.84L204.26 175.72Z" fill="#DCBA43"/>
<path d="M276.38 103.6L348.5 103.6L348.5 175.72L276.38 175.72L276.38 103.6Z" fill="#DCBA43"/>
<path d="M95.4056 425.794L182.084 425.794L182.084 549.583C182.084 573.542 201.523 593.309 225.325 593.309L348.5 593.309L348.5 680.56L95.4056 680.56L95.4056 425.794Z" fill="#DCBA43"/>
<path d="M95.4056 331.98L348.5 331.98L348.5 419.231L95.4056 419.231L95.4056 331.98ZM65.8515 401.062C75.5706 401.062 83.5046 409.448 83.5046 419.231C83.5046 428.815 75.5706 437.001 65.8515 437.001C56.1323 437.001 48 428.815 48 419.231C48 409.448 56.1323 401.062 65.8515 401.062Z" fill="#DCBA43"/>
<path d="M241.052 692.58L327.5 692.58L327.5 815.229C327.5 886.247 268.945 945 197.927 945L75.08 945L75.08 692.58L161.528 692.58L161.528 858.552L197.927 858.552C221.666 858.552 241.052 838.77 241.052 815.229L241.052 692.58Z" fill="#FDFDFC"/>
<path d="M495.881 759.831C467.037 759.831 442.832 784.037 442.832 812.679C442.832 841.322 466.835 865.729 495.881 865.729C524.927 865.729 548.729 841.524 548.729 812.679C548.729 783.835 524.725 759.831 495.881 759.831ZM561.84 680.56C597.945 680.56 628 710.413 628 746.519L628 945L363.56 945L363.56 746.519C363.56 710.413 393.413 680.56 429.519 680.56C465.625 680.56 495.679 710.413 495.679 746.519L495.881 746.519C495.881 710.413 525.734 680.56 561.84 680.56Z" fill="#FDFDFC"/>
<path d="M495.881 505.296C471.676 505.296 451.707 524.948 451.707 549.011C451.707 572.875 471.878 592.928 495.881 592.928C520.086 592.928 539.853 573.075 539.853 549.011C539.853 525.148 519.884 505.296 495.881 505.296ZM495.881 417.664C568.294 417.664 628 477.021 628 549.011C628 621.002 568.294 680.56 495.881 680.56C423.266 680.56 363.56 620.601 363.56 549.011C363.56 477.021 423.468 417.664 495.881 417.664Z" fill="#FDFDFC"/>
<path d="M484.989 221.937L628 79.5601L628 203.488L565.269 266.054L628 328.219L628 451.947L484.989 309.77L370.62 423.672L370.62 299.743L404.709 265.853L370.62 231.964L370.62 108.035L484.989 221.937Z" fill="#FDFDFC"/>
<path d="M255.38 247.84L327.5 247.84L327.5 319.96L255.38 319.96L255.38 247.84Z" fill="#FDFDFC"/>
<path d="M183.26 175.72L255.38 175.72L255.38 247.84L183.26 247.84L183.26 175.72Z" fill="#FDFDFC"/>
<path d="M255.38 103.6L327.5 103.6L327.5 175.72L255.38 175.72L255.38 103.6Z" fill="#FDFDFC"/>
<path d="M74.4056 425.794L161.084 425.794L161.084 549.583C161.084 573.542 180.523 593.309 204.325 593.309L327.5 593.309L327.5 680.56L74.4056 680.56L74.4056 425.794Z" fill="#FDFDFC"/>
<path d="M74.4056 331.98L327.5 331.98L327.5 419.231L74.4056 419.231L74.4056 331.98ZM44.8515 401.062C54.5706 401.062 62.5046 409.448 62.5046 419.231C62.5046 428.815 54.5706 437.001 44.8515 437.001C35.1323 437.001 27 428.815 27 419.231C27 409.448 35.1323 401.062 44.8515 401.062Z" fill="#FDFDFC"/>
<path d="M253.161 724.292L252.661 724.292L252.661 724.792L252.661 869.203C252.661 896.649 230.043 919.713 202.358 919.713L159.979 919.713L159.979 724.792L159.979 724.292L159.479 724.292L57.6399 724.292L57.1399 724.292L57.1399 724.792L57.1399 1022L57.1399 1022.5L57.6399 1022.5L202.358 1022.5C286.297 1022.5 355.5 953.098 355.5 869.203L355.5 724.792L355.5 724.292L355 724.292L253.161 724.292ZM709 1022.5L709.5 1022.5L709.5 1022L709.5 788.301C709.5 745.51 673.869 710.139 631.061 710.139C590.832 710.139 557.154 741.375 553.239 780.647C549.298 741.373 515.408 710.139 475.182 710.139C432.372 710.139 396.98 745.512 396.98 788.301L396.98 1022L396.98 1022.5L397.48 1022.5L709 1022.5ZM445.245 222.349L405.444 261.897L405.297 262.044L405.297 262.252L405.297 408.169L405.297 409.372L406.149 408.524L540.528 274.762L708.648 441.816L709.5 442.663L709.5 441.461L709.5 295.78L709.5 295.571L709.352 295.424L635.809 222.584L709.353 149.272L709.5 149.125L709.5 148.918L709.5 2.99995L709.5 1.79707L708.647 2.64552L540.527 169.935L406.149 36.1736L405.297 35.3248L405.297 36.528L405.297 182.446L405.297 182.654L405.444 182.8L445.245 222.349ZM355.5 201.139L355.5 200.639L355 200.639L270.54 200.639L270.54 116.722L355 116.722L355.5 116.722L355.5 116.222L355.5 31.3054L355.5 30.8054L355 30.8054L270.04 30.8054L269.54 30.8054L269.54 31.3054L269.54 115.722L185.08 115.722L184.58 115.722L184.58 116.222L184.58 201.139L184.58 201.639L185.08 201.639L269.54 201.639L269.54 286.056L269.54 286.556L270.04 286.556L355 286.556L355.5 286.556L355.5 286.056L355.5 201.139ZM56.8455 410.168L56.3455 410.168L56.3455 410.668L56.3455 710.639L56.3455 711.139L56.8455 711.139L355 711.139L355.5 711.139L355.5 710.639L355.5 607.906L355.5 607.406L355 607.406L209.895 607.406C182.137 607.406 159.456 584.362 159.456 556.422L159.456 410.668L159.456 410.168L158.956 410.168L56.8455 410.168ZM56.8455 299.708L56.3455 299.708L56.3455 300.208L56.3455 402.941L56.3455 403.441L56.8455 403.441L355 403.441L355.5 403.441L355.5 402.941L355.5 300.208L355.5 299.708L355 299.708L56.8455 299.708ZM491.365 866.201C491.365 832.753 519.654 804.476 553.359 804.476C587.063 804.476 615.115 832.515 615.115 866.201C615.115 899.89 587.297 928.163 553.359 928.163C519.42 928.163 491.365 899.652 491.365 866.201ZM501.82 555.749C501.82 527.697 525.115 504.776 553.359 504.776C581.362 504.776 604.66 527.931 604.66 555.749C604.66 583.806 581.597 606.958 553.359 606.958C525.355 606.958 501.82 583.567 501.82 555.749ZM709.5 555.749C709.5 470.705 638.938 400.595 553.359 400.595C467.781 400.595 396.98 470.704 396.98 555.749C396.98 640.319 467.541 711.139 553.359 711.139C638.939 711.139 709.5 640.791 709.5 555.749ZM43.3258 402.941C43.3258 391.163 33.7725 381.048 22.0297 381.048C10.2941 381.048 0.500008 391.156 0.500007 402.941C0.500007 414.502 10.3048 424.364 22.0297 424.364C33.7618 424.364 43.3258 414.495 43.3258 402.941Z" stroke="#FDFDFC"/>
</svg>
