<svg width="38" height="38" viewBox="0 0 38 38" fill="none" xmlns="http://www.w3.org/2000/svg">
<circle cx="19" cy="19" r="18.5185" fill="#FDFDFC"/>
<path d="M12.9162 24.8256C13.8484 26 15.5833 26 19.0532 26H19.6136C23.0834 26 24.8183 26 25.7505 24.8256M12.9162 24.8256C11.9841 23.6511 12.3038 21.8681 12.9433 18.3021C13.398 15.7662 13.6254 14.4982 14.4886 13.7491M12.9162 24.8256C12.9162 24.8256 12.9162 24.8256 12.9162 24.8256ZM25.7505 24.8256C26.6827 23.6511 26.3629 21.8681 25.7235 18.3021C25.2687 15.7662 25.0414 14.4982 24.1781 13.7491M25.7505 24.8256C25.7505 24.8256 25.7505 24.8256 25.7505 24.8256ZM24.1781 13.7491C23.3149 13 22.0811 13 19.6136 13H19.0532C16.5856 13 15.3518 13 14.4886 13.7491M24.1781 13.7491C24.1781 13.7491 24.1781 13.7491 24.1781 13.7491ZM14.4886 13.7491C14.4886 13.7491 14.4886 13.7491 14.4886 13.7491Z" stroke="black" stroke-width="1.5"/>
<path d="M17.3334 16C17.6245 17.1652 18.41 18 19.3334 18C20.2567 18 21.0423 17.1652 21.3334 16" stroke="black" stroke-width="1.5" stroke-linecap="round"/>
</svg>
