<svg width="77" height="53" viewBox="0 0 77 53" fill="none" xmlns="http://www.w3.org/2000/svg">
<path d="M22.6977 18.9275V26.6262H11.8812C5.61802 26.6262 0.436523 21.4115 0.436523 15.087V4.14673H22.6977V11.8454H8.06047V15.087C8.06047 17.201 9.80508 18.9275 11.8812 18.9275H22.6977Z" fill="#FDFDFC"/>
<path d="M16.0464 41.2576C16.0464 38.7342 13.9488 36.6166 11.4667 36.6166C8.98459 36.6166 6.86954 38.7165 6.86954 41.2576C6.86954 43.7986 8.96711 45.8809 11.4667 45.8809C13.9663 45.8809 16.0464 43.781 16.0464 41.2576ZM22.916 47.0279C22.916 50.1866 20.329 52.8159 17.2001 52.8159H8.60004H0V29.6816H17.2001C20.329 29.6816 22.916 32.2933 22.916 35.452C22.916 38.6106 20.329 41.2399 17.2001 41.2399V41.2576C20.329 41.2576 22.916 43.8692 22.916 47.0279Z" fill="#FDFDFC"/>
<path d="M38.9093 41.2576C38.9093 39.14 37.1894 37.393 35.0834 37.393C32.995 37.393 31.24 39.1577 31.24 41.2576C31.24 43.3751 32.9774 45.1044 35.0834 45.1044C37.1719 45.1044 38.9093 43.3575 38.9093 41.2576ZM46.5786 41.2576C46.5786 47.5926 41.3838 52.8159 35.0834 52.8159C28.783 52.8159 23.5707 47.5926 23.5707 41.2576C23.5707 34.9049 28.8181 29.6816 35.0834 29.6816C41.3838 29.6816 46.5786 34.9226 46.5786 41.2576Z" fill="#FDFDFC"/>
<path d="M63.7079 40.3047L76.1683 52.8159H65.3225L59.8469 47.3279L54.4065 52.8159H43.5782L56.0211 40.3047L46.0528 30.2993H56.8986L59.8645 33.2815L62.8304 30.2993H73.6762L63.7079 40.3047Z" fill="#FDFDFC"/>
<path d="M61.5457 20.5153L61.5457 26.6262L55.2166 26.6262L55.2166 20.5153L61.5457 20.5153Z" fill="#FDFDFC"/>
<path d="M67.6566 14.186L67.6566 20.5152L61.5457 20.5152L61.5457 14.186L67.6566 14.186Z" fill="#FDFDFC"/>
<path d="M74.2041 20.5153L74.2041 26.6262L67.6566 26.6262L67.6566 20.5153L74.2041 20.5153Z" fill="#FDFDFC"/>
<path d="M45.6839 4.20043V11.8807H34.8332C32.733 11.8807 31.0004 13.6031 31.0004 15.7121V26.6262H23.3524V4.20043H45.6839Z" fill="#FDFDFC"/>
<path d="M53.9071 4.20043V26.6262H46.2591V4.20043H53.9071ZM47.8517 1.58175C47.8517 2.44293 47.1166 3.14593 46.2591 3.14593C45.419 3.14593 44.7015 2.44293 44.7015 1.58175C44.7015 0.720576 45.419 0 46.2591 0C47.1166 0 47.8517 0.720576 47.8517 1.58175Z" fill="#FDFDFC"/>
</svg>
