<svg width="72" height="50" viewBox="0 0 72 50" fill="none" xmlns="http://www.w3.org/2000/svg">
<path d="M21 17.808V25H10.7962C4.88793 25 0 20.1285 0 14.2202V4H21V11.192H7.19201V14.2202C7.19201 16.1951 8.83778 17.808 10.7962 17.808H21Z" fill="#ED254E"/>
<path d="M15.405 39.0084C15.405 36.6087 13.3913 34.595 11.0084 34.595C8.62548 34.595 6.59496 36.5919 6.59496 39.0084C6.59496 41.4249 8.60869 43.405 11.0084 43.405C13.4081 43.405 15.405 41.4081 15.405 39.0084ZM22 44.4958C22 47.4996 19.5164 50 16.5126 50H8.25629H0V28H16.5126C19.5164 28 22 30.4836 22 33.4874C22 36.4912 19.5164 38.9916 16.5126 38.9916V39.0084C19.5164 39.0084 22 41.492 22 44.4958Z" fill="#ED254E"/>
<path d="M36.5811 39.0084C36.5811 36.9947 34.9461 35.3333 32.9441 35.3333C30.9589 35.3333 29.2905 37.0114 29.2905 39.0084C29.2905 41.0221 30.9422 42.6667 32.9441 42.6667C34.9294 42.6667 36.5811 41.0053 36.5811 39.0084ZM43.8716 39.0084C43.8716 45.0328 38.9334 50 32.9441 50C26.9549 50 22 45.0328 22 39.0084C22 32.9672 26.9883 28 32.9441 28C38.9334 28 43.8716 32.984 43.8716 39.0084Z" fill="#ED254E"/>
<path d="M60.155 38.1022L72 50H61.6898L56.4847 44.7811L51.3129 50H41.0194L52.8478 38.1022L43.3718 28.5873H53.6819L56.5014 31.4233L59.3208 28.5873H69.631L60.155 38.1022Z" fill="#ED254E"/>
<path d="M58 19L58 25L52 25L52 19L58 19Z" fill="#ED254E"/>
<path d="M64 13L64 19L58 19L58 13L64 13Z" fill="#ED254E"/>
<path d="M70 19L70 25L64 25L64 19L70 19Z" fill="#ED254E"/>
<path d="M43.1952 3.94389V11.1551H32.8966C30.9033 11.1551 29.2589 12.7723 29.2589 14.7525V25H22V3.94389H43.1952Z" fill="#ED254E"/>
<path d="M51 3.94389V25H43.7411V3.94389H51ZM45.2527 1.48515C45.2527 2.29373 44.5551 2.9538 43.7411 2.9538C42.9438 2.9538 42.2628 2.29373 42.2628 1.48515C42.2628 0.676567 42.9438 0 43.7411 0C44.5551 0 45.2527 0.676567 45.2527 1.48515Z" fill="#ED254E"/>
</svg>
