<svg width="51" height="50" viewBox="0 0 51 50" fill="none" xmlns="http://www.w3.org/2000/svg">
<circle cx="25.9634" cy="25" r="25" fill="black"/>
<path d="M28.7693 30.6943L28.7231 29.9457L28.7693 30.6943ZM23.2961 20.8244L23.2396 21.5722C23.4429 21.5876 23.6437 21.5195 23.7957 21.3837C23.9478 21.2479 24.038 21.056 24.0455 20.8522L23.2961 20.8244ZM32.4888 27.3715L33.2274 27.5014L32.4888 27.3715ZM28.7231 29.9457C27.1319 30.0437 25.4978 30.234 23.899 30.0485C22.3386 29.8675 20.8964 29.3326 19.7228 28.0188L18.6041 29.0181C20.0896 30.681 21.9157 31.3285 23.7261 31.5385C25.4981 31.7441 27.3373 31.5339 28.8154 31.4429L28.7231 29.9457ZM19.7228 28.0188C18.5801 26.7397 18.3492 25.0268 18.928 23.7057C19.4859 22.4323 20.8602 21.3925 23.2396 21.5722L23.3525 20.0765C20.4211 19.8551 18.3995 21.1741 17.554 23.1038C16.7295 24.9859 17.0876 27.3205 18.6041 29.0181L19.7228 28.0188ZM28.8154 31.4429C29.3482 31.41 29.9296 31.3725 30.4594 31.265C30.989 31.1575 31.5496 30.9652 31.9976 30.5649L30.9983 29.4463C30.8342 29.5929 30.572 29.7115 30.161 29.795C29.7503 29.8783 29.2734 29.9118 28.7231 29.9457L28.8154 31.4429ZM33.2274 27.5014C33.4839 26.0429 33.8993 24.2389 33.8941 22.4551C33.8888 20.6326 33.4504 18.7453 31.9649 17.0825L30.8463 18.0818C32.0199 19.3955 32.3895 20.8887 32.3941 22.4595C32.3988 24.0691 32.0263 25.6715 31.7501 27.2416L33.2274 27.5014ZM31.9649 17.0825C30.4484 15.3849 28.1688 14.7667 26.206 15.3747C24.1935 15.9981 22.6558 17.8587 22.5466 20.7965L24.0455 20.8522C24.1342 18.4677 25.3217 17.2189 26.6498 16.8076C28.0275 16.3808 29.7037 16.8027 30.8463 18.0818L31.9649 17.0825ZM31.7501 27.2416C31.6546 27.7846 31.5678 28.2547 31.4388 28.6535C31.3098 29.0525 31.1624 29.2997 30.9983 29.4463L31.9976 30.5649C32.4457 30.1647 32.6997 29.6293 32.866 29.1151C33.0324 28.6007 33.135 28.0272 33.2274 27.5014L31.7501 27.2416Z" fill="#FDFDFC"/>
</svg>
