<svg width="33" height="32" viewBox="0 0 33 32" fill="none" xmlns="http://www.w3.org/2000/svg">
<path d="M29.3171 27.6463L22.7296 21.0588C24.5759 19.0278 25.5546 16.3552 25.4567 13.6122C25.3587 10.8692 24.1918 8.27329 22.2053 6.3792C20.2188 4.4851 17.5703 3.44305 14.8257 3.47572C12.0812 3.50839 9.45823 4.61318 7.5174 6.55402C5.57656 8.49485 4.47177 11.1178 4.4391 13.8624C4.40643 16.6069 5.44848 19.2554 7.34258 21.2419C9.23667 23.2284 11.8326 24.3953 14.5756 24.4933C17.3186 24.5913 19.9911 23.6125 22.0221 21.7663L28.6096 28.3538C28.7035 28.4476 28.8307 28.5003 28.9634 28.5003C29.0961 28.5003 29.2233 28.4476 29.3171 28.3538C29.411 28.2599 29.4637 28.1327 29.4637 28C29.4637 27.8673 29.411 27.7401 29.3171 27.6463ZM5.46339 14C5.46339 12.1211 6.02056 10.2844 7.06443 8.7221C8.10831 7.15983 9.592 5.94219 11.3279 5.22316C13.0638 4.50413 14.9739 4.31599 16.8168 4.68255C18.6596 5.04911 20.3523 5.9539 21.6809 7.2825C23.0095 8.6111 23.9143 10.3038 24.2809 12.1467C24.6474 13.9895 24.4593 15.8996 23.7402 17.6355C23.0212 19.3714 21.8036 20.8551 20.2413 21.899C18.679 22.9429 16.8423 23.5 14.9634 23.5C12.4446 23.4974 10.0298 22.4956 8.2488 20.7146C6.46778 18.9336 5.46604 16.5188 5.46339 14Z" fill="#FDFDFC"/>
</svg>
